<?xml version="1.0" encoding="UTF-8" standalone="no"?>
<svg
   xmlns:dc="http://purl.org/dc/elements/1.1/"
   xmlns:cc="http://creativecommons.org/ns#"
   xmlns:rdf="http://www.w3.org/1999/02/22-rdf-syntax-ns#"
   xmlns:svg="http://www.w3.org/2000/svg"
   xmlns="http://www.w3.org/2000/svg"
   xmlns:sodipodi="http://sodipodi.sourceforge.net/DTD/sodipodi-0.dtd"
   xmlns:inkscape="http://www.inkscape.org/namespaces/inkscape"
   inkscape:export-ydpi="65.019997"
   inkscape:export-xdpi="65.019997"
   inkscape:export-filename="/Users/justinclark/Documents/TN2021/Logos/icon.png"
   sodipodi:docname="TN_square.svg"
   inkscape:version="1.0beta2 (2b71d25, 2019-12-03)"
   id="svg8"
   version="1.1"
   viewBox="0 0 200 200"
   height="200mm"
   width="200mm">
  <defs
     id="defs2">
    <rect
       id="rect848"
       height="28.33057"
       width="125.61668"
       y="149.67094"
       x="16.570711" />
    <rect
       id="rect842"
       height="35.814117"
       width="211.67747"
       y="34.745039"
       x="3.7417734" />
    <rect
       id="rect835"
       height="205.79754"
       width="213.81563"
       y="37.952273"
       x="16.036172" />
  </defs>
  <sodipodi:namedview
     inkscape:window-maximized="0"
     inkscape:window-y="25"
     inkscape:window-x="670"
     inkscape:window-height="942"
     inkscape:window-width="1252"
     showgrid="false"
     inkscape:document-rotation="0"
     inkscape:current-layer="layer1"
     inkscape:document-units="mm"
     inkscape:cy="560"
     inkscape:cx="400"
     inkscape:zoom="0.36792294"
     inkscape:pageshadow="2"
     inkscape:pageopacity="0.0"
     borderopacity="1.0"
     bordercolor="#666666"
     pagecolor="#ffffff"
     id="base" />
  <metadata
     id="metadata5">
    <rdf:RDF>
      <cc:Work
         rdf:about="">
        <dc:format>image/svg+xml</dc:format>
        <dc:type
           rdf:resource="http://purl.org/dc/dcmitype/StillImage" />
        <dc:title />
      </cc:Work>
    </rdf:RDF>
  </metadata>
  <g
     id="layer1"
     inkscape:groupmode="layer"
     inkscape:label="TN">
    <g
       style="font-style:normal;font-weight:normal;font-size:10.5833px;line-height:1.25;font-family:sans-serif;white-space:pre;shape-inside:url(#rect835);fill:#149f9d;fill-opacity:1;stroke:none"
       id="text833"
       transform="translate(-12.527344,-8.7858318)"
       aria-label="TN">
      <path
         id="path857"
         style="font-style:normal;font-variant:normal;font-weight:bold;font-stretch:normal;font-size:127px;font-family:Georgia;-inkscape-font-specification:'Georgia, Bold';font-variant-ligatures:normal;font-variant-caps:normal;font-variant-numeric:normal;font-variant-east-asian:normal;fill:#149f9d;fill-opacity:1"
         d="m 102.10938,89.717228 h -4.774907 q -1.922364,-5.643066 -6.201172,-12.092285 -4.216797,-6.449219 -7.813477,-6.945312 -1.984375,-0.248047 -4.898926,-0.434082 -2.91455,-0.186036 -5.022949,-0.186036 h -2.914551 v 69.019047 q 0,2.23242 0.806153,3.96875 0.806152,1.67431 3.162597,2.6665 1.42627,0.55811 4.402832,1.17822 3.038575,0.55811 5.146973,0.80616 v 4.83691 H 34.950684 v -4.83691 q 1.798339,-0.18604 5.022949,-0.4961 3.286621,-0.37207 4.464844,-0.86816 2.418457,-0.99219 3.224609,-2.66651 0.806152,-1.67431 0.806152,-3.96875 V 70.059513 h -2.914551 q -2.108398,0 -5.022949,0.186036 -2.914551,0.186035 -4.898926,0.434082 -3.596679,0.496093 -7.875488,6.945312 -4.216797,6.449219 -6.13916,12.092285 H 16.843262 V 64.540471 h 85.266118 z" />
      <path
         id="path859"
         style="font-style:normal;font-variant:normal;font-weight:bold;font-stretch:normal;font-size:127px;font-family:Georgia;-inkscape-font-specification:'Georgia, Bold';font-variant-ligatures:normal;font-variant-caps:normal;font-variant-numeric:normal;font-variant-east-asian:normal;fill:#149f9d;fill-opacity:1"
         d="m 208.21143,69.377385 q -1.73633,0.186035 -4.96094,0.682128 -3.22461,0.496094 -5.8291,2.418458 -2.29444,1.674316 -3.28662,5.767089 -0.93018,4.030762 -0.93018,11.90625 v 62.87988 H 182.1665 L 127.34814,85.004338 v 41.299802 q 0,7.68946 0.99219,11.72022 1.0542,3.96875 3.34863,5.8291 1.67432,1.36426 5.33301,2.41846 3.65869,1.0542 5.8291,1.42627 v 4.83691 h -37.82714 v -4.83691 q 2.41845,-0.18604 5.51904,-0.86817 3.1626,-0.74414 5.27099,-2.23242 2.41846,-1.79834 3.28663,-5.39502 0.93017,-3.65869 0.93017,-12.21631 V 85.314396 q 0,-3.100586 -0.99219,-5.829101 -0.93017,-2.790528 -2.97656,-4.774903 -2.17041,-2.108398 -5.02295,-3.286621 -2.79052,-1.240234 -6.3872,-1.922363 v -4.960937 h 33.11425 l 48.1211,59.531249 V 90.771428 q 0,-7.9375 -1.0542,-11.782227 -1.0542,-3.906738 -3.34864,-5.76709 -1.79833,-1.426269 -5.333,-2.418457 -3.53467,-1.054199 -5.70508,-1.426269 v -4.836914 h 37.76514 z" />
    </g>
  </g>
  <g
     inkscape:label="TherapyNottingham"
     id="layer2"
     inkscape:groupmode="layer"
     style="display:none">
    <text
       transform="translate(0.58826263,-3.7417734)"
       style="font-style:normal;font-weight:normal;font-size:10.58329999999999949px;line-height:1.25;font-family:sans-serif;white-space:pre;shape-inside:url(#rect842);fill:#149f9d;fill-opacity:1;stroke:none;"
       id="text840"
       xml:space="preserve"><tspan
         sodipodi:role="line"
         x="3.7421875"
         y="52.568043"><tspan
           style="font-style:normal;font-variant:normal;font-weight:normal;font-stretch:normal;font-size:19.7556px;font-family:Georgia;-inkscape-font-specification:'Georgia, Normal';font-variant-ligatures:normal;font-variant-caps:normal;font-variant-numeric:normal;font-variant-east-asian:normal;fill:#149f9d;fill-opacity:1">Therapy</tspan></tspan></text>
    <text
       transform="translate(74.612541,-5.2916669)"
       style="font-style:normal;font-weight:normal;font-size:10.58329999999999949px;line-height:1.25;font-family:sans-serif;white-space:pre;shape-inside:url(#rect848);fill:#000000;fill-opacity:1;stroke:none;"
       id="text846"
       xml:space="preserve"><tspan
         sodipodi:role="line"
         x="16.570312"
         y="167.49578"><tspan
           style="font-style:normal;font-variant:normal;font-weight:normal;font-stretch:normal;font-size:19.7556px;font-family:Georgia;-inkscape-font-specification:'Georgia, Normal';font-variant-ligatures:normal;font-variant-caps:normal;font-variant-numeric:normal;font-variant-east-asian:normal;fill:#149f9d;fill-opacity:1">Nottingham</tspan></tspan></text>
  </g>
</svg>
